<svg xmlns="http://www.w3.org/2000/svg" viewBox="0 0 1040 500" fill="none">
  <path transform="matrix(1 0 0 1 0 0)" d="M 1040 0 L 0 0 L 0 500 L 1040 500 L 1040 0 Z" fill="#ffffff"/>
  <path transform="matrix(1 0 0 1 395.5 0)" d="M 644.5 500 L 243.79 500 L 0 0 L 644.5 0 L 644.5 500 Z" fill="#169600"/>
  <path transform="matrix(1 0 0 1 360.15 264.67)" d="M 132.25 0 L 12.17 0 C 5.45 0 0 5.45 0 12.17 L 0 61.77 C 0 68.49 5.45 73.94 12.17 73.94 L 132.25 73.94 C 138.97 73.94 144.42 68.49 144.42 61.77 L 144.42 12.17 C 144.42 5.45 138.97 0 132.25 0 Z" fill="#edeef4"/>
  <path transform="matrix(1 0 0 1 371.91 272.04)" d="M 41.44 0 L 0 0 L 0 59.19 L 41.44 59.19 L 41.44 0 Z" fill="#ffffff"/>
  <path transform="matrix(1 0 0 1 371.91 303.99)" d="M 0 27.23 C 0 27.23 0 0 20.72 0 C 41.44 0 41.44 27.23 41.44 27.23 L 0 27.23 Z" fill="#f1f7ea"/>
  <path transform="matrix(0.72 -0.7 0.7 0.72 374.82 291.09)" d="M 12.59 25.19 C 19.55 25.19 25.19 19.55 25.19 12.59 C 25.19 5.64 19.55 0 12.59 0 C 5.64 0 0 5.64 0 12.59 C 0 19.55 5.64 25.19 12.59 25.19 Z" fill="#f1f7ea"/>
  <path transform="matrix(1 0 0 1 421.05 286.65)" d="M 71.77 0 L 0 0 L 0 1.81 L 71.77 1.81 L 71.77 0 Z" fill="#f1f7ea"/>
  <path transform="matrix(1 0 0 1 421.05 293.29)" d="M 71.77 0 L 0 0 L 0 1.81 L 71.77 1.81 L 71.77 0 Z" fill="#f1f7ea"/>
  <path transform="matrix(1 0 0 1 421.05 299.93)" d="M 71.77 0 L 0 0 L 0 1.81 L 71.77 1.81 L 71.77 0 Z" fill="#f1f7ea"/>
  <path transform="matrix(1 0 0 1 421.05 306.57)" d="M 71.77 0 L 0 0 L 0 1.81 L 71.77 1.81 L 71.77 0 Z" fill="#f1f7ea"/>
  <path transform="matrix(1 0 0 1 421.05 313.21)" d="M 53.28 0 L 0 0 L 0 1.81 L 53.28 1.81 L 53.28 0 Z" fill="#f1f7ea"/>
  <path transform="matrix(1 0 0 1 421.05 319.92)" d="M 5.95 0 L 7.35 4.32 L 11.89 4.32 L 8.22 6.99 L 9.62 11.31 L 5.95 8.64 L 2.27 11.31 L 3.67 6.99 L 0 4.32 L 4.54 4.32 L 5.95 0 Z" fill="#f7b45c"/>
  <path transform="matrix(1 0 0 1 436.01 319.92)" d="M 5.95 0 L 7.35 4.32 L 11.89 4.32 L 8.22 6.99 L 9.62 11.31 L 5.95 8.64 L 2.27 11.31 L 3.67 6.99 L 0 4.32 L 4.54 4.32 L 5.95 0 Z" fill="#f7b45c"/>
  <path transform="matrix(1 0 0 1 450.98 319.92)" d="M 5.95 0 L 7.35 4.32 L 11.89 4.32 L 8.22 6.99 L 9.62 11.31 L 5.95 8.64 L 2.27 11.31 L 3.67 6.99 L 0 4.32 L 4.54 4.32 L 5.95 0 Z" fill="#f7b45c"/>
  <path transform="matrix(1 0 0 1 465.95 319.92)" d="M 5.95 0 L 7.35 4.32 L 11.89 4.32 L 8.22 6.99 L 9.62 11.31 L 5.95 8.64 L 2.27 11.31 L 3.67 6.99 L 0 4.32 L 4.54 4.32 L 5.95 0 Z" fill="#f7b45c"/>
  <path transform="matrix(1 0 0 1 480.92 319.92)" d="M 5.95 0 L 7.35 4.32 L 11.89 4.32 L 8.22 6.99 L 9.62 11.31 L 5.95 8.64 L 2.27 11.31 L 3.67 6.99 L 0 4.32 L 4.54 4.32 L 5.95 0 Z" fill="#f7b45c"/>
  <path transform="matrix(1 0 0 1 421.05 272.04)" d="M 38.77 0 L 0 0 L 0 8.65 L 38.77 8.65 L 38.77 0 Z" fill="#f1f7ea"/>
  <path transform="matrix(1 0 0 1 63.13 67.79)" d="M 180.4 0.28 C 178.79 0.16 177.19 0.07 175.6 0 L 0.01 165.99 C -0.27 190.9 4.94 214.75 14.57 236.27 L 244.95 18.47 C 225.46 8.41 203.66 2.02 180.4 0.28 Z" fill="#e6ebed" opacity="0.7"/>
  <path transform="matrix(1 0 0 1 91.12 100.99)" d="M 240.48 0 L 0 227.38 C 10.68 243.44 24.06 257.59 39.55 269.17 L 40.98 267.21 L 279.74 41.46 C 269.12 25.54 255.83 11.49 240.48 0 Z" fill="#e6ebed" opacity="0.7"/>
  <path transform="matrix(1 0 0 1 153.78 166.73)" d="M 230.51 0 L 0 217.94 C 19.56 228.07 41.45 234.52 64.81 236.26 C 69.65 236.62 74.46 236.79 79.21 236.72 L 244.8 80.15 L 244.8 80.12 C 246.75 51.64 241.46 24.35 230.51 0 Z" fill="#e6ebed" opacity="0.7"/>
  <path transform="matrix(1 0 0 1 63.15 67.6)" d="M 0 166.17 L 175.59 0.18 C 85.14 -4.02 7.22 64.59 0.45 155.46 C 0.19 159.05 0.04 162.63 0 166.17 Z" fill="#cfd6d9" opacity="0.5"/>
  <path transform="matrix(1 0 0 1 77.71 86.25)" d="M 230.38 0 L 0 217.8 C 3.82 226.3 8.3 234.43 13.41 242.11 L 253.89 14.74 C 246.51 9.22 238.66 4.28 230.38 0 Z" fill="#cfd6d9" opacity="0.5"/>
  <path transform="matrix(1 0 0 1 130.67 142.45)" d="M 240.19 0 L 1.42 225.76 L 0 227.72 C 7.27 233.15 15 238.01 23.12 242.22 L 253.62 24.29 C 249.8 15.81 245.3 7.68 240.19 0 Z" fill="#cfd6d9" opacity="0.5"/>
  <path transform="matrix(1 0 0 1 232.99 246.88)" d="M 165.59 0 L 0 156.58 C 86.33 155.68 159.01 88.77 165.54 1.13 C 165.56 0.76 165.59 0.37 165.59 0 Z" fill="#cfd6d9" opacity="0.5"/>
  <path transform="matrix(1 0 0 1 37.38 371)" d="M 38.71 0 L 0 38.69 C 2.32 39.7 4.51 41.16 6.42 43.07 L 10.75 47.4 L 48.44 9.73 L 38.71 0 Z" fill="#cfd6d9"/>
  <path transform="matrix(1 0 0 1 48.13 380.73)" d="M 37.69 0 L 0 37.67 L 4.35 42.03 C 6.26 43.93 7.71 46.12 8.72 48.44 L 47.43 9.75 L 37.69 0 Z" fill="#abb4b9"/>
  <path transform="matrix(1 0 0 1 54.47 58.93)" d="M 128.39 337.5 C 137.32 340.16 146.41 342.07 155.56 343.21 C 174.7 345.61 194.16 344.71 213.04 340.54 C 221.9 338.58 230.63 335.89 239.12 332.5 C 259.57 324.3 278.75 311.92 295.31 295.37 C 298.75 291.93 302.01 288.4 305.06 284.76 C 360.73 218.77 357.49 120.04 295.36 57.88 C 295.1 57.62 294.82 57.34 294.54 57.1 L 294.53 57.08 C 274.22 37.02 250.09 23.21 224.5 15.61 C 215.59 12.97 206.48 11.08 197.33 9.94 C 178.34 7.59 159.03 8.49 140.3 12.61 C 131.3 14.6 122.44 17.32 113.78 20.81 C 93.44 29.01 74.37 41.35 57.87 57.84 C 56.73 58.98 55.62 60.12 54.53 61.29 C -7.7 127.06 -6.6 230.87 57.83 295.32 C 60.38 297.87 62.99 300.32 65.65 302.66 C 84.33 319.13 105.8 330.75 128.39 337.5 Z M 51.75 51.71 C 120.74 -17.25 232.55 -17.23 301.5 51.74 C 370.46 120.73 370.44 232.54 301.45 301.5 C 238.91 364.02 141.18 369.83 72.07 318.97 C 64.97 313.74 58.15 307.89 51.7 301.44 C 45.27 295.01 39.43 288.19 34.19 281.08 C -16.65 211.97 -10.79 114.23 51.75 51.71 Z" fill="#abb4b9"/>
  <path transform="matrix(1 0 0 1 -139.68 418.4)" d="M 196.53 10.77 C 195.52 8.45 194.07 6.26 192.16 4.35 L 187.81 0 L 0 187.74 L 4.35 192.09 C 12.41 200.15 25.49 200.16 33.55 192.09 L 192.17 33.54 C 198.33 27.38 199.77 18.31 196.53 10.77 Z" fill="#65727a"/>
  <path transform="matrix(1 0 0 1 85.81 360.37)" d="M 20.36 0 L 0 20.35 L 9.74 30.1 L 18.95 39.31 L 40.73 17.53 C 33.62 12.3 26.81 6.45 20.36 0 Z" fill="#65727a"/>
  <path transform="matrix(1 0 0 1 -150.06 408)" d="M 187.44 1.69 C 179.91 -1.57 170.83 -0.11 164.67 6.04 L 6.05 164.6 C -2.01 172.66 -2.02 185.74 6.04 193.8 L 10.38 198.14 L 198.19 10.4 L 193.85 6.06 C 191.95 4.16 189.76 2.7 187.44 1.69 Z" fill="#88939a"/>
  <path transform="matrix(1 0 0 1 66.88 340.01)" d="M 21.78 0 L 0 21.77 L 9.21 30.98 L 18.93 40.71 L 39.29 20.36 C 32.86 13.93 27.02 7.11 21.78 0 Z" fill="#88939a"/>
  <path transform="matrix(1 0 0 1 309.46 235.59)" d="M 70.49 0 L 70.49 8.34 L 65.71 8.34 L 0 8.34 L 0 0 L 65.71 0 L 70.49 0 Z" fill="#5e4d41"/>
  <path transform="matrix(1 0 0 1 82.18 235.59)" d="M 70.49 0 L 70.49 8.34 L 4.77 8.34 L 0 8.34 L 0 0 L 4.77 0 L 70.49 0 Z" fill="#5e4d41"/>
  <path transform="matrix(1 0 0 1 335.23 281.23)" d="M 33.27 0 L 33.27 25.1 L 0 25.1 L 33.27 0 Z" fill="#f1f7ea"/>
  <path transform="matrix(1 0 0 1 316.14 251.63)" d="M 52.36 0 L 52.36 11.45 L 0 50.96 L 0 39.51 L 52.36 0 Z" fill="#f1f7ea"/>
  <path transform="matrix(1 0 0 1 266.74 286.84)" d="M 25.63 0 L 25.63 19.49 L 0 19.49 L 0 19.33 L 25.63 0 Z" fill="#f1f7ea"/>
  <path transform="matrix(1 0 0 1 266.74 251.63)" d="M 25.63 0 L 25.63 20.04 L 0 39.37 L 0 9.37 L 12.43 0 L 25.63 0 Z" fill="#f1f7ea"/>
  <path transform="matrix(1 0 0 1 266.74 197.46)" d="M 25.63 0 L 25.63 19.84 L 1.4 38.13 L 0 38.13 L 0 19.34 L 25.63 0 Z" fill="#f1f7ea"/>
  <path transform="matrix(1 0 0 1 266.74 169.03)" d="M 25.38 13.72 L 0 32.88 L 0 7.88 L 10.44 0 L 25.38 13.72 Z" fill="#f1f7ea"/>
  <path transform="matrix(1 0 0 1 206.28 138.4)" d="M 43.62 5.59 L 0 38.51 L 0 28.3 L 37.52 0 L 43.62 5.59 Z" fill="#f1f7ea"/>
  <path transform="matrix(1 0 0 1 206.28 182.56)" d="M 49.56 0 L 49.56 23.74 L 10.75 53.02 L 0 53.02 L 0 37.39 L 49.56 0 Z" fill="#f1f7ea"/>
  <path transform="matrix(1 0 0 1 206.28 251.63)" d="M 43.51 0 L 0 32.83 L 0 12.06 L 15.98 0 L 43.51 0 Z" fill="#f1f7ea"/>
  <path transform="matrix(1 0 0 1 206.28 269.22)" d="M 49.56 0 L 49.56 30 L 29.88 44.84 L 0 44.84 L 0 37.39 L 49.56 0 Z" fill="#f1f7ea"/>
  <path transform="matrix(1 0 0 1 93.63 251.63)" d="M 52.36 0 L 52.36 11.45 L 0 50.96 L 0 39.51 L 52.36 0 Z" fill="#f1f7ea"/>
  <path transform="matrix(1 0 0 1 112.72 281.23)" d="M 33.27 0 L 33.27 25.1 L 0 25.1 L 33.27 0 Z" fill="#f1f7ea"/>
  <path transform="matrix(1 0 0 1 171.79 270.37)" d="M 25.65 0 L 25.65 20.77 L 5.51 35.96 L 0 35.96 L 0 19.35 L 25.65 0 Z" fill="#f1f7ea"/>
  <path transform="matrix(1 0 0 1 171.79 212.88)" d="M 25.65 0 L 25.65 22.71 L 0 22.71 L 0 19.35 L 25.65 0 Z" fill="#f1f7ea"/>
  <path transform="matrix(1 0 0 1 171.79 172.9)" d="M 25.65 0 L 25.65 19.35 L 0 38.71 L 0 19.35 L 25.65 0 Z" fill="#f1f7ea"/>
  <path transform="matrix(1 0 0 1 268.13 217.3)" d="M 24.23 0 L 24.23 18.29 L 0 18.29 L 24.23 0 Z" fill="#a5e1a5"/>
  <path transform="matrix(1 0 0 1 266.74 182.76)" d="M 25.63 0.23 L 25.63 14.7 L 0 34.04 L 0 19.16 L 25.38 0 L 25.63 0.23 Z" fill="#a5e1a5"/>
  <path transform="matrix(1 0 0 1 266.74 159.45)" d="M 10.44 9.58 L 0 17.46 L 0 0 L 10.44 9.58 Z" fill="#a5e1a5"/>
  <path transform="matrix(1 0 0 1 217.03 206.3)" d="M 38.81 0 L 38.81 29.28 L 0 29.28 L 38.81 0 Z" fill="#a5e1a5"/>
  <path transform="matrix(1 0 0 1 206.28 144)" d="M 49.56 5.46 L 49.56 38.57 L 0 75.96 L 0 32.92 L 43.62 0 L 49.56 5.46 Z" fill="#a5e1a5"/>
  <path transform="matrix(1 0 0 1 206.28 126.72)" d="M 24.79 0 L 37.52 11.68 L 0 39.98 L 0 22.73 L 24.79 0 Z" fill="#a5e1a5"/>
  <path transform="matrix(1 0 0 1 171.79 192.25)" d="M 25.65 0 L 25.65 20.63 L 0 39.98 L 0 19.35 L 25.65 0 Z" fill="#a5e1a5"/>
  <path transform="matrix(1 0 0 1 171.79 157.58)" d="M 25.65 0 L 25.65 15.31 L 0 34.67 L 0 23.53 L 25.65 0 Z" fill="#a5e1a5"/>
  <path transform="matrix(1 0 0 1 316.14 263.08)" d="M 52.36 0 L 52.36 18.15 L 19.09 43.25 L 0 43.25 L 0 39.51 L 52.36 0 Z" fill="#a5e1a5"/>
  <path transform="matrix(1 0 0 1 316.14 251.63)" d="M 52.36 0 L 0 39.51 L 0 0 L 52.36 0 Z" fill="#a5e1a5"/>
  <path transform="matrix(1 0 0 1 266.74 271.67)" d="M 25.63 0 L 25.63 15.17 L 0 34.51 L 0 19.33 L 25.63 0 Z" fill="#a5e1a5"/>
  <path transform="matrix(1 0 0 1 266.74 251.63)" d="M 12.43 0 L 0 9.37 L 0 0 L 12.43 0 Z" fill="#a5e1a5"/>
  <path transform="matrix(1 0 0 1 236.16 299.22)" d="M 19.68 0 L 19.68 14.84 L 0 14.84 L 19.68 0 Z" fill="#a5e1a5"/>
  <path transform="matrix(1 0 0 1 206.28 251.63)" d="M 49.56 0 L 49.56 17.59 L 0 54.98 L 0 32.83 L 43.51 0 L 49.56 0 Z" fill="#a5e1a5"/>
  <path transform="matrix(1 0 0 1 206.28 251.63)" d="M 15.98 0 L 0 12.06 L 0 0 L 15.98 0 Z" fill="#a5e1a5"/>
  <path transform="matrix(1 0 0 1 177.3 291.14)" d="M 20.14 0 L 20.14 15.19 L 0 15.19 L 20.14 0 Z" fill="#a5e1a5"/>
  <path transform="matrix(1 0 0 1 171.79 251.63)" d="M 25.65 0 L 25.65 18.74 L 0 38.09 L 0 0 L 25.65 0 Z" fill="#a5e1a5"/>
  <path transform="matrix(1 0 0 1 93.63 263.08)" d="M 52.36 0 L 52.36 18.15 L 19.09 43.25 L 0 43.25 L 0 39.51 L 52.36 0 Z" fill="#a5e1a5"/>
  <path transform="matrix(1 0 0 1 93.63 251.63)" d="M 52.36 0 L 0 39.51 L 0 0 L 52.36 0 Z" fill="#a5e1a5"/>
  <path transform="matrix(1 0 0 1 66.39 314.06)" d="M 329.34 93.94 L 0 93.94 C 0 88.92 2.03 8.6 5.32 5.32 C 8.6 2.03 13.15 0 18.15 0 L 20.56 0 L 86.27 0 L 93.21 0 L 139.89 0 L 169.77 0 L 189.45 0 L 236.13 0 L 243.07 0 L 308.79 0 L 311.2 0 C 321.21 0 329.34 83.92 329.34 93.94 Z" fill="#687c28"/>
  <path transform="matrix(1 0 0 1 86.95 178.66)" d="M 65.72 0 L 65.72 18.79 L 0 56.92 L 65.72 0 Z" fill="#c4654e"/>
  <path transform="matrix(1 0 0 1 309.46 178.66)" d="M 65.71 56.92 L 0 17.92 L 0 0 L 65.71 56.92 Z" fill="#c4654e"/>
  <path transform="matrix(1 0 0 1 309.46 196.58)" d="M 65.71 39 L 0 39 L 0 0 L 65.71 39 Z" fill="#ad5e40"/>
  <path transform="matrix(1 0 0 1 86.95 197.46)" d="M 65.72 0 L 65.72 38.13 L 0 38.13 L 65.72 0 Z" fill="#ad5e40"/>
  <path transform="matrix(1 0 0 1 309.46 243.92)" d="M 65.71 0 L 4.35 4.34 L 0 70.14 L 0 0 L 65.71 0 Z" fill="#121f26"/>
  <path transform="matrix(1 0 0 1 86.95 243.92)" d="M 65.72 0 L 65.72 70.14 L 61.57 4.34 L 0 0 L 65.72 0 Z" fill="#121f26"/>
  <path transform="matrix(1 0 0 1 309.46 243.92)" d="M 65.71 0 L 65.71 70.14 L 0 70.14 L 4.35 4.34 L 65.71 0 Z M 59.04 62.41 L 59.04 37.31 L 59.04 19.16 L 59.04 7.71 L 6.68 7.71 L 6.68 47.22 L 6.68 58.67 L 6.68 62.41 L 25.77 62.41 L 59.04 62.41 Z" fill="#1e2f3a"/>
  <path transform="matrix(1 0 0 1 86.95 243.92)" d="M 61.57 4.34 L 65.72 70.14 L 0 70.14 L 0 0 L 61.57 4.34 Z M 59.04 62.41 L 59.04 37.31 L 59.04 19.16 L 59.04 7.71 L 6.68 7.71 L 6.68 47.22 L 6.68 58.67 L 6.68 62.41 L 25.77 62.41 L 59.04 62.41 Z" fill="#1e2f3a"/>
  <path transform="matrix(1 0 0 1 152.67 102.65)" d="M 156.79 68.5 L 78.41 9.06 L 0 68.5 L 78.41 0 L 156.79 68.5 Z" fill="#8c7a6d"/>
  <path transform="matrix(1 0 0 1 159.61 251.63)" d="M 46.68 54.98 L 46.68 62.43 L 0 62.43 L 0 0 L 12.18 0 L 12.18 38.09 L 12.18 54.7 L 17.69 54.7 L 37.83 54.7 L 37.83 39.51 L 37.83 18.74 L 37.83 0 L 46.68 0 L 46.68 12.06 L 46.68 32.83 L 46.68 54.98 Z" fill="#1e2f3a"/>
  <path transform="matrix(1 0 0 1 255.84 251.63)" d="M 46.68 0 L 46.68 62.43 L 0 62.43 L 0 47.59 L 0 17.59 L 0 0 L 10.89 0 L 10.89 9.37 L 10.89 39.37 L 10.89 54.54 L 10.89 54.7 L 36.52 54.7 L 36.52 35.21 L 36.52 20.04 L 36.52 0 L 46.68 0 Z" fill="#1e2f3a"/>
  <path transform="matrix(1 0 0 1 159.61 235.59)" d="M 108.53 0 L 132.76 0 L 142.91 0 L 142.91 16.05 L 132.76 16.05 L 119.56 16.05 L 107.13 16.05 L 96.24 16.05 L 90.19 16.05 L 62.66 16.05 L 46.68 16.05 L 37.83 16.05 L 12.18 16.05 L 0 16.05 L 0 0 L 12.18 0 L 37.83 0 L 46.68 0 L 57.43 0 L 96.24 0 L 107.13 0 L 108.53 0 Z" fill="#5e4d41"/>
  <path transform="matrix(1 0 0 1 159.61 111.71)" d="M 132.51 71.05 L 117.57 57.32 L 107.13 47.74 L 107.13 65.21 L 107.13 90.21 L 107.13 105.08 L 107.13 123.88 L 96.24 123.88 L 96.24 94.59 L 96.24 70.85 L 96.24 37.74 L 90.29 32.29 L 84.19 26.69 L 71.47 15.02 L 46.68 37.74 L 46.68 55 L 46.68 65.21 L 46.68 108.25 L 46.68 123.88 L 37.83 123.88 L 37.83 101.17 L 37.83 80.54 L 37.83 61.19 L 37.83 45.87 L 12.18 69.4 L 12.18 80.54 L 12.18 99.89 L 12.18 120.52 L 12.18 123.88 L 0 123.88 L 0 65.56 L 71.47 0 L 142.91 65.56 L 142.91 123.88 L 132.76 123.88 L 132.76 105.59 L 132.76 85.75 L 132.76 71.27 L 132.51 71.05 Z" fill="#1e2f3a"/>
  <path transform="matrix(1 0 0 1 231.07 111.71)" d="M 78.39 132.22 L 78.39 202.35 L 71.45 202.35 L 71.45 139.92 L 71.45 123.88 L 71.45 65.56 L 0 0 L 78.39 59.44 L 78.39 66.96 L 78.39 84.87 L 78.39 123.88 L 78.39 132.22 Z" fill="#736357"/>
  <path transform="matrix(1 0 0 1 152.67 111.71)" d="M 78.41 0 L 6.94 65.56 L 6.94 123.88 L 6.94 139.92 L 6.94 202.35 L 0 202.35 L 0 132.22 L 0 123.88 L 0 85.75 L 0 66.96 L 0 59.44 L 78.41 0 Z" fill="#736357"/>
  <path transform="matrix(1 0 0 1 316.14 251.9)" d="M 27.01 26.48 L 27.01 0 L 25.34 0 L 25.34 26.48 L 0 26.48 L 0 28.23 L 25.34 28.23 L 25.34 54.71 L 27.01 54.71 L 27.01 28.23 L 52.36 28.23 L 52.36 26.48 L 27.01 26.48 Z" fill="#1e2f3a"/>
  <path transform="matrix(1 0 0 1 93.63 251.9)" d="M 25.34 26.48 L 25.34 0 L 27.01 0 L 27.01 26.48 L 52.36 26.48 L 52.36 28.23 L 27.01 28.23 L 27.01 54.71 L 25.34 54.71 L 25.34 28.23 L 0 28.23 L 0 26.48 L 25.34 26.48 Z" fill="#1e2f3a"/>
  <path transform="matrix(1 0 0 1 206.29 126.99)" d="M 49.55 42.8 L 49.55 41.05 L 25.65 41.05 L 25.65 0.8 L 24.77 0 L 23.9 0.8 L 23.9 41.05 L 0 41.05 L 0 42.8 L 23.9 42.8 L 23.9 77.78 L 0 77.78 L 0 79.53 L 23.9 79.53 L 23.9 108.87 L 25.65 108.87 L 25.65 79.53 L 49.55 79.53 L 49.55 77.78 L 25.65 77.78 L 25.65 42.8 L 49.55 42.8 Z" fill="#1e2f3a"/>
  <path transform="matrix(1 0 0 1 266.73 204.82)" d="M 25.64 0 L 0 0 L 0 1.75 L 25.64 1.75 L 25.64 0 Z" fill="#1e2f3a"/>
  <path transform="matrix(1 0 0 1 171.79 204.82)" d="M 25.64 0 L 0 0 L 0 1.75 L 25.64 1.75 L 25.64 0 Z" fill="#1e2f3a"/>
  <path transform="matrix(1 0 0 1 98.75 256.74)" d="M 12.71 0 C 15.44 9.62 17.26 25.55 17.26 37.01 C 17.26 51.8 14.2 54.33 10.09 54.76 C 9.35 54.83 8.58 54.85 7.78 54.85 C 7.26 54.85 6.73 54.85 6.23 54.82 C 3.66 54.69 1.44 54.01 0 50.48 C 0 33.03 5.89 0.06 12.46 0.06 L 12.71 0 Z" fill="#687c28"/>
  <path transform="matrix(1 0 0 1 97.07 248.42)" d="M 14.38 8.32 L 14.14 8.38 C 7.57 8.38 1.68 41.36 1.68 58.8 C 0.61 56.18 0 52 0 45.33 C 0 27.89 4.24 0 9.46 0 C 11.27 0 12.95 3.3 14.38 8.32 Z" fill="#7b9639"/>
  <path transform="matrix(1 0 0 1 104.98 311.51)" d="M 3.85 0 L 3.85 7.73 L 0 7.73 L 0 0.06 C 0.5 0.08 1.02 0.08 1.55 0.08 C 2.35 0.09 3.11 0.07 3.85 0 Z" fill="#5e4738"/>
  <path transform="matrix(1 0 0 1 347.74 256.74)" d="M 12.71 0 C 15.44 9.62 17.26 25.55 17.26 37.01 C 17.26 51.8 14.2 54.33 10.09 54.76 C 9.35 54.83 8.58 54.85 7.78 54.85 C 7.26 54.85 6.73 54.85 6.23 54.82 C 3.66 54.69 1.44 54.01 0 50.48 C 0 33.03 5.89 0.06 12.46 0.06 L 12.71 0 Z" fill="#687c28"/>
  <path transform="matrix(1 0 0 1 346.06 248.42)" d="M 14.38 8.32 L 14.14 8.38 C 7.57 8.38 1.68 41.36 1.68 58.8 C 0.61 56.18 0 52 0 45.33 C 0 27.89 4.24 0 9.46 0 C 11.27 0 12.95 3.3 14.38 8.32 Z" fill="#7b9639"/>
  <path transform="matrix(1 0 0 1 353.97 311.51)" d="M 3.86 0 L 3.86 7.73 L 0 7.73 L 0 0.06 C 0.5 0.08 1.02 0.08 1.55 0.08 C 2.35 0.09 3.12 0.07 3.86 0 Z" fill="#5e4738"/>
  <path transform="matrix(1 0 0 1 118.97 285.26)" d="M 2.32 28.8 C 2.32 28.8 -4.35 23.31 4.93 22.49 C 4.93 22.49 1.16 14.64 6.38 10.48 C 11.6 6.32 15.38 11.45 15.38 11.45 C 15.38 11.45 12.19 6.35 16.44 4.19 C 20.09 2.35 20.41 8.16 20.41 8.16 C 20.41 8.16 20.6 1.78 25.43 2.45 C 30.27 3.13 30.08 6.8 30.08 6.8 C 30.08 6.8 29.77 0 33.69 0 L 33.69 28.79 L 2.32 28.8 Z" fill="#7b9639"/>
  <path transform="matrix(1 0 0 1 309.47 285.26)" d="M 31.37 28.8 C 31.37 28.8 38.05 23.31 28.76 22.49 C 28.76 22.49 32.53 14.64 27.31 10.48 C 22.09 6.32 18.32 11.45 18.32 11.45 C 18.32 11.45 21.5 6.35 17.25 4.19 C 13.6 2.35 13.29 8.16 13.29 8.16 C 13.29 8.16 13.1 1.78 8.26 2.45 C 3.42 3.13 3.62 6.8 3.62 6.8 C 3.62 6.8 3.93 0 0 0 L 0 28.79 L 31.37 28.8 Z" fill="#7b9639"/>
  <path transform="matrix(1 0 0 1 249.99 323.4)" d="M 132.25 0 L 12.17 0 C 5.45 0 0 5.45 0 12.17 L 0 61.77 C 0 68.49 5.45 73.94 12.17 73.94 L 132.25 73.94 C 138.97 73.94 144.42 68.49 144.42 61.77 L 144.42 12.17 C 144.42 5.45 138.97 0 132.25 0 Z" fill="#d3d5e0"/>
  <path transform="matrix(1 0 0 1 261.75 330.78)" d="M 41.44 0 L 0 0 L 0 59.19 L 41.44 59.19 L 41.44 0 Z" fill="#ffffff"/>
  <path transform="matrix(1 0 0 1 261.75 362.73)" d="M 0 27.23 C 0 27.23 0 0 20.72 0 C 41.44 0 41.44 27.23 41.44 27.23 L 0 27.23 Z" fill="#f1f7ea"/>
  <path transform="matrix(1 0 0 1 269.88 337.54)" d="M 25.19 12.59 C 25.19 19.55 19.55 25.19 12.59 25.19 C 5.64 25.19 0 19.55 0 12.59 C 0 5.64 5.64 0 12.59 0 C 19.55 0 25.19 5.64 25.19 12.59 Z" fill="#f1f7ea"/>
  <path transform="matrix(1 0 0 1 310.88 345.39)" d="M 71.77 0 L 0 0 L 0 1.81 L 71.77 1.81 L 71.77 0 Z" fill="#f1f7ea"/>
  <path transform="matrix(1 0 0 1 310.88 352.03)" d="M 71.77 0 L 0 0 L 0 1.81 L 71.77 1.81 L 71.77 0 Z" fill="#f1f7ea"/>
  <path transform="matrix(1 0 0 1 310.88 358.67)" d="M 71.77 0 L 0 0 L 0 1.81 L 71.77 1.81 L 71.77 0 Z" fill="#f1f7ea"/>
  <path transform="matrix(1 0 0 1 310.88 365.31)" d="M 71.77 0 L 0 0 L 0 1.81 L 71.77 1.81 L 71.77 0 Z" fill="#f1f7ea"/>
  <path transform="matrix(1 0 0 1 310.88 371.95)" d="M 53.28 0 L 0 0 L 0 1.81 L 53.28 1.81 L 53.28 0 Z" fill="#f1f7ea"/>
  <path transform="matrix(1 0 0 1 310.88 378.65)" d="M 5.95 0 L 7.35 4.32 L 11.89 4.32 L 8.22 6.99 L 9.62 11.31 L 5.95 8.64 L 2.27 11.31 L 3.67 6.99 L 0 4.32 L 4.54 4.32 L 5.95 0 Z" fill="#f7b45c"/>
  <path transform="matrix(1 0 0 1 325.85 378.65)" d="M 5.95 0 L 7.35 4.32 L 11.89 4.32 L 8.22 6.99 L 9.62 11.31 L 5.95 8.64 L 2.27 11.31 L 3.67 6.99 L 0 4.32 L 4.54 4.32 L 5.95 0 Z" fill="#f7b45c"/>
  <path transform="matrix(1 0 0 1 340.82 378.65)" d="M 5.94 0 L 7.35 4.32 L 11.89 4.32 L 8.22 6.99 L 9.62 11.31 L 5.94 8.64 L 2.27 11.31 L 3.67 6.99 L 0 4.32 L 4.54 4.32 L 5.94 0 Z" fill="#f7b45c"/>
  <path transform="matrix(1 0 0 1 355.79 378.65)" d="M 5.94 0 L 7.35 4.32 L 11.89 4.32 L 8.22 6.99 L 9.62 11.31 L 5.94 8.64 L 2.27 11.31 L 3.67 6.99 L 0 4.32 L 4.54 4.32 L 5.94 0 Z" fill="#f7b45c"/>
  <path transform="matrix(1 0 0 1 370.76 378.65)" d="M 5.95 0 L 7.35 4.32 L 11.89 4.32 L 8.22 6.99 L 9.62 11.31 L 5.95 8.64 L 2.27 11.31 L 3.67 6.99 L 0 4.32 L 4.54 4.32 L 5.95 0 Z" fill="#f7b45c"/>
  <path transform="matrix(1 0 0 1 310.88 330.78)" d="M 38.77 0 L 0 0 L 0 8.65 L 38.77 8.65 L 38.77 0 Z" fill="#f1f7ea"/>
  <path transform="matrix(1 0 0 1 340.79 359.24)" d="M 174.41 0 L 16.04 0 C 7.18 0 0 7.18 0 16.04 L 0 81.46 C 0 90.33 7.18 97.51 16.04 97.51 L 174.41 97.51 C 183.27 97.51 190.45 90.33 190.45 81.46 L 190.45 16.04 C 190.45 7.18 183.27 0 174.41 0 Z" fill="#edeef4"/>
  <path transform="matrix(1 0 0 1 356.3 368.97)" d="M 54.65 0 L 0 0 L 0 78.05 L 54.65 78.05 L 54.65 0 Z" fill="#ffffff"/>
  <path transform="matrix(1 0 0 1 356.3 411.11)" d="M 0 35.92 C 0 35.92 0 0 27.33 0 C 54.65 0 54.65 35.92 54.65 35.92 L 0 35.92 Z" fill="#f1f7ea"/>
  <path transform="matrix(0.24 -0.97 0.97 0.24 363.56 406.71)" d="M 16.61 33.21 C 25.78 33.21 33.21 25.78 33.21 16.61 C 33.21 7.44 25.78 0 16.61 0 C 7.44 0 0 7.44 0 16.61 C 0 25.78 7.44 33.21 16.61 33.21 Z" fill="#f1f7ea"/>
  <path transform="matrix(1 0 0 1 421.09 388.24)" d="M 94.64 0 L 0 0 L 0 2.39 L 94.64 2.39 L 94.64 0 Z" fill="#f1f7ea"/>
  <path transform="matrix(1 0 0 1 421.09 397)" d="M 94.64 0 L 0 0 L 0 2.39 L 94.64 2.39 L 94.64 0 Z" fill="#f1f7ea"/>
  <path transform="matrix(1 0 0 1 421.09 405.76)" d="M 94.64 0 L 0 0 L 0 2.39 L 94.64 2.39 L 94.64 0 Z" fill="#f1f7ea"/>
  <path transform="matrix(1 0 0 1 421.09 414.51)" d="M 94.64 0 L 0 0 L 0 2.39 L 94.64 2.39 L 94.64 0 Z" fill="#f1f7ea"/>
  <path transform="matrix(1 0 0 1 421.09 423.27)" d="M 70.27 0 L 0 0 L 0 2.39 L 70.27 2.39 L 70.27 0 Z" fill="#f1f7ea"/>
  <path transform="matrix(1 0 0 1 421.09 432.11)" d="M 7.84 0 L 9.69 5.7 L 15.68 5.7 L 10.83 9.22 L 12.69 14.91 L 7.84 11.39 L 2.99 14.91 L 4.85 9.22 L 0 5.7 L 5.99 5.7 L 7.84 0 Z" fill="#f7b45c"/>
  <path transform="matrix(1 0 0 1 440.83 432.11)" d="M 7.84 0 L 9.69 5.7 L 15.68 5.7 L 10.83 9.22 L 12.69 14.91 L 7.84 11.39 L 2.99 14.91 L 4.85 9.22 L 0 5.7 L 5.99 5.7 L 7.84 0 Z" fill="#f7b45c"/>
  <path transform="matrix(1 0 0 1 460.57 432.11)" d="M 7.84 0 L 9.69 5.7 L 15.68 5.7 L 10.83 9.22 L 12.68 14.91 L 7.84 11.39 L 2.99 14.91 L 4.85 9.22 L 0 5.7 L 5.99 5.7 L 7.84 0 Z" fill="#f7b45c"/>
  <path transform="matrix(1 0 0 1 480.31 432.11)" d="M 7.84 0 L 9.69 5.7 L 15.68 5.7 L 10.84 9.22 L 12.69 14.91 L 7.84 11.39 L 3 14.91 L 4.85 9.22 L 0 5.7 L 5.99 5.7 L 7.84 0 Z" fill="#f7b45c"/>
  <path transform="matrix(1 0 0 1 500.05 432.11)" d="M 7.84 0 L 9.69 5.7 L 15.68 5.7 L 10.83 9.22 L 12.69 14.91 L 7.84 11.39 L 2.99 14.91 L 4.85 9.22 L 0 5.7 L 5.99 5.7 L 7.84 0 Z" fill="#f7b45c"/>
  <path transform="matrix(1 0 0 1 421.09 368.97)" d="M 51.13 0 L 0 0 L 0 11.4 L 51.13 11.4 L 51.13 0 Z" fill="#f1f7ea"/>
</svg>
